<svg width="28" height="28" viewBox="0 0 28 28" fill="none" xmlns="http://www.w3.org/2000/svg">
<circle cx="14" cy="14" r="14" fill="#E4F3D7"/>
<path d="M14.5 12.1716C12.6907 12.1716 11.2188 10.6997 11.2188 8.89038C11.2188 7.0811 12.6907 5.60913 14.5 5.60913C16.3093 5.60913 17.7812 7.0811 17.7812 8.89038C17.7812 10.6997 16.3093 12.1716 14.5 12.1716ZM14.5 6.92163C13.4144 6.92163 12.5312 7.8048 12.5312 8.89038C12.5312 9.97596 13.4144 10.8591 14.5 10.8591C15.5856 10.8591 16.4688 9.97596 16.4688 8.89038C16.4688 7.8048 15.5856 6.92163 14.5 6.92163ZM13.329 20.854C11.3481 20.854 9.53645 20.7761 8.58633 19.8296C8.1694 19.4142 7.95801 18.8765 7.95801 18.2312C7.95801 17.5826 8.16815 16.9431 8.58261 16.3305C8.9513 15.7855 9.46256 15.2899 10.1022 14.8573C11.3676 14.0017 12.9705 13.5109 14.5 13.5109C16.0289 13.5109 17.6285 14.002 18.8887 14.8581C19.5255 15.2907 20.0343 15.7866 20.4011 16.3319C20.8128 16.9441 21.0215 17.5831 21.0215 18.2312C21.0215 18.8783 20.8099 19.4171 20.3926 19.8328C19.3526 20.8689 17.2791 20.8609 15.0836 20.8525C14.6945 20.851 14.3054 20.851 13.9164 20.8525C13.7194 20.8533 13.5234 20.854 13.329 20.854ZM14.5 19.5385C14.6962 19.5385 14.8927 19.5393 15.0886 19.54C16.1041 19.5439 17.0632 19.5476 17.8737 19.4499C18.6616 19.3549 19.1974 19.1709 19.4663 18.903C19.5705 18.7992 19.709 18.6167 19.709 18.2312C19.709 17.4501 19.1412 16.6164 18.1511 15.9438C17.1031 15.2318 15.7723 14.8234 14.5 14.8234C11.9097 14.8234 9.27051 16.5433 9.27051 18.2312C9.27051 18.6142 9.40869 18.7962 9.51264 18.8997C10.1698 19.5544 12.1576 19.5467 13.9114 19.54C14.1074 19.5393 14.3039 19.5385 14.5 19.5385Z" fill="#3F8353"/>
</svg>
