<svg width="28" height="28" viewBox="0 0 28 28" fill="none" xmlns="http://www.w3.org/2000/svg">
<circle cx="14" cy="14" r="14" fill="#E4F3D7"/>
<path d="M19.6301 6.08997C20.8892 6.08997 21.9101 7.11084 21.9101 8.36997V18.63C21.9101 19.8891 20.8892 20.91 19.6301 20.91H9.37009C8.11096 20.91 7.09009 19.8891 7.09009 18.63V8.36997C7.09009 7.11084 8.11096 6.08997 9.37009 6.08997H19.6301ZM10.7001 7.03997H9.37009C9.02524 7.03996 8.69387 7.1739 8.44588 7.41352C8.19789 7.65314 8.05267 7.97972 8.04085 8.32437L8.04009 8.36997V10.08H9.27509C9.40107 10.08 9.52188 10.13 9.61096 10.2191C9.70004 10.3082 9.75009 10.429 9.75009 10.555C9.75009 10.6809 9.70004 10.8018 9.61096 10.8908C9.52188 10.9799 9.40107 11.03 9.27509 11.03H8.04009V13.12H9.27509C9.40107 13.12 9.52188 13.17 9.61096 13.2591C9.70004 13.3482 9.75009 13.469 9.75009 13.595C9.75009 13.7209 9.70004 13.8418 9.61096 13.9308C9.52188 14.0199 9.40107 14.07 9.27509 14.07H8.04009V16.16H9.27509C9.40107 16.16 9.52188 16.21 9.61096 16.2991C9.70004 16.3882 9.75009 16.509 9.75009 16.635C9.75009 16.7609 9.70004 16.8818 9.61096 16.9708C9.52188 17.0599 9.40107 17.11 9.27509 17.11H8.04009V18.63C8.04008 18.9748 8.17402 19.3062 8.41364 19.5542C8.65327 19.8022 8.97984 19.9474 9.32449 19.9592L9.37009 19.96H10.7001V7.03997ZM19.6301 7.03997H11.6501V19.96H19.6301C19.9749 19.96 20.3063 19.826 20.5543 19.5864C20.8023 19.3468 20.9475 19.0202 20.9593 18.6756L20.9601 18.63V8.36997C20.9601 8.02512 20.8262 7.69375 20.5865 7.44576C20.3469 7.19777 20.0203 7.05255 19.6757 7.04073L19.6301 7.03997Z" fill="#3F8353"/>
<path d="M18.68 8.37C18.8312 8.37 18.9762 8.43005 19.0831 8.53694C19.19 8.64384 19.25 8.78882 19.25 8.93999V11.98C19.25 12.0548 19.2353 12.129 19.2067 12.1981C19.178 12.2673 19.136 12.3301 19.0831 12.383C19.0302 12.436 18.9673 12.478 18.8982 12.5066C18.829 12.5353 18.7549 12.55 18.68 12.55H14.12C14.0452 12.55 13.9711 12.5353 13.9019 12.5066C13.8328 12.478 13.7699 12.436 13.717 12.383C13.6641 12.3301 13.6221 12.2673 13.5934 12.1981C13.5648 12.129 13.55 12.0548 13.55 11.98V8.93999C13.55 8.78882 13.6101 8.64384 13.717 8.53694C13.8239 8.43005 13.9689 8.37 14.12 8.37H18.68ZM18.3 9.32H14.5V11.6H18.3V9.32Z" fill="#3F8353"/>
</svg>
