<svg width="28" height="28" viewBox="0 0 28 28" fill="none" xmlns="http://www.w3.org/2000/svg">
<circle cx="14" cy="14" r="14" fill="#E4F3D7"/>
<path d="M13.7671 17.8856C13.8631 17.9928 13.9993 18.0487 14.1334 18.0487C14.1401 18.0487 14.1468 18.0487 14.1535 18.0487C14.1602 18.0487 14.1669 18.0487 14.1736 18.0487C14.3076 18.0487 14.4416 17.9928 14.5399 17.8856L18.2855 13.7067C20.0455 11.8104 19.4782 9.186 19.4536 9.07432L19.4469 9.04976C18.8104 6.76038 17.305 5.78209 16.1547 5.36219C15.5606 5.14554 15.0044 5.05619 14.5801 5.02046C14.5577 5.01599 14.5332 5.01152 14.5108 5.00929C14.4952 5.00706 14.3656 4.99812 14.1557 5.00036C13.9457 4.99812 13.8162 5.00929 13.8006 5.00929C13.776 5.01152 13.7537 5.01599 13.7313 5.02046C13.307 5.05619 12.7486 5.14777 12.1567 5.36219C11.0064 5.78209 9.50101 6.76038 8.86445 9.04976L8.85775 9.07432C8.83318 9.186 8.26363 11.8126 10.0259 13.7067L13.7671 17.8856ZM9.81147 9.29991C10.2314 7.80568 11.1203 6.79612 12.456 6.30027C13.1752 6.03225 13.8452 5.98758 14.1847 5.98311C14.5332 5.98981 15.1474 6.04342 15.8152 6.28687C17.1687 6.78048 18.0689 7.79228 18.4932 9.29991C18.5089 9.38032 18.6116 9.92307 18.5558 10.6244C18.4776 11.6027 18.1426 12.4157 17.5596 13.0411L17.5574 13.0456L14.1535 16.8426L10.7496 13.0478L10.7429 13.0411C10.1599 12.4157 9.82487 11.6027 9.7467 10.6244C9.69309 9.92083 9.79583 9.37585 9.81147 9.29991ZM14.1557 12.4179C15.2769 12.4179 16.1882 11.5066 16.1882 10.3854C16.1882 9.26417 15.2769 8.35289 14.1557 8.35289C13.0345 8.35289 12.1232 9.26417 12.1232 10.3854C12.1232 11.5066 13.0345 12.4179 14.1557 12.4179ZM14.1557 9.33565C14.7342 9.33565 15.2055 9.80692 15.2055 10.3854C15.2055 10.9639 14.7342 11.4352 14.1557 11.4352C13.5772 11.4352 13.1059 10.9639 13.1059 10.3854C13.1059 9.80692 13.5772 9.33565 14.1557 9.33565ZM20.5548 17.7427L20.5436 17.7337C19.7619 17.0056 18.3659 16.6281 17.9371 16.5053C17.6757 16.4316 17.4033 16.5812 17.3296 16.8426C17.2558 17.1039 17.4055 17.3764 17.6668 17.4501C18.0443 17.5595 19.266 17.8946 19.8691 18.4485C20.0411 18.6205 20.1862 18.8773 20.1259 19.0694C20.0433 19.3374 19.5586 19.6479 18.826 19.7864H18.8238C18.8216 19.7864 18.4821 19.8511 17.8276 19.9181C17.2201 19.9807 15.9492 20.0544 14.5935 20.0656C14.4974 20.0656 14.3813 20.0656 14.2584 20.0656C13.7336 20.0656 13.0166 20.0633 12.9317 20.0611C11.9668 20.0455 11.0801 19.9963 10.2939 19.9159C9.63949 19.8489 9.30222 19.7841 9.29999 19.7841H9.29776C8.56516 19.6456 8.08048 19.3352 7.99784 19.0672C7.93977 18.8728 8.08495 18.616 8.25469 18.4462C8.85552 17.8901 10.0795 17.5551 10.457 17.4478C10.7183 17.3741 10.8679 17.1017 10.7942 16.8403C10.7205 16.579 10.448 16.4294 10.1867 16.5031C9.7601 16.6259 8.36414 17.0056 7.58017 17.7315L7.569 17.7404C7.196 18.109 6.86544 18.7254 7.05529 19.3531C7.2563 20.0142 7.9487 20.5279 9.11014 20.749C9.14588 20.7557 9.50771 20.825 10.1934 20.8942C11.0064 20.9768 11.9222 21.0282 12.9139 21.0438C12.9987 21.0461 13.5705 21.0461 14.254 21.0483C14.3321 21.0483 14.4059 21.0483 14.4729 21.0483C14.4818 21.0483 14.493 21.0483 14.5019 21.0483H14.5041C14.5332 21.0483 14.5644 21.0483 14.5935 21.0483C14.7364 21.0483 14.8392 21.0483 14.8704 21.0483H14.8727C14.8972 21.0483 14.9196 21.0461 14.9441 21.0438C16.1636 21.0237 17.3474 20.9523 17.9214 20.8942C18.6071 20.825 18.9712 20.7557 19.0047 20.749C20.1661 20.5301 20.8585 20.0142 21.0596 19.3531C21.2606 18.7277 20.9278 18.1112 20.5548 17.7427Z" fill="#3F8353"/>
</svg>
