<svg width="28" height="28" viewBox="0 0 28 28" fill="none" xmlns="http://www.w3.org/2000/svg">
<circle cx="14" cy="14" r="14" fill="#E4F3D7"/>
<path d="M21.4672 9.13042C21.4672 9.12573 21.4648 9.12104 21.4648 9.1187C21.4625 9.11401 21.4625 9.10933 21.4602 9.10464C21.4578 9.09526 21.4484 9.09058 21.4437 9.0812C21.4156 9.01323 21.3734 8.95229 21.3195 8.90308C21.3031 8.88901 21.2891 8.87495 21.2727 8.86089C21.2047 8.81167 21.1297 8.77417 21.0406 8.76245C20.7688 8.72964 20.4992 8.70854 20.2273 8.70854C17.6117 8.70854 15.343 10.2437 14.225 12.4773C14.0281 11.7648 13.7281 11.0992 13.332 10.4992C12.118 8.66167 10.0648 7.44995 7.73984 7.44995C7.46797 7.44995 7.19844 7.47104 6.92656 7.50386H6.92422C6.8375 7.51558 6.7625 7.55308 6.69687 7.59995C6.67812 7.61401 6.66406 7.62808 6.64766 7.64214C6.59609 7.69136 6.55391 7.74995 6.52812 7.81558C6.52344 7.82495 6.51406 7.83198 6.50937 7.84136C6.50703 7.84604 6.50703 7.85308 6.50469 7.85776C6.50469 7.86011 6.50469 7.86245 6.50234 7.86479C6.27734 8.54917 6.16016 9.27573 6.16016 10.021C6.16016 13.8296 9.19062 16.9281 12.9172 16.9281C13.107 16.9281 13.2945 16.907 13.4797 16.8906V24.039C13.4797 24.3179 13.7047 24.5429 13.9836 24.5429C14.2625 24.5429 14.4875 24.3179 14.4875 24.039V18.1656C14.6844 18.1914 14.8813 18.2101 15.0523 18.189C16.8617 18.189 18.5609 17.4695 19.8359 16.1617C21.1086 14.8585 21.8094 13.1242 21.8094 11.2796C21.807 10.5367 21.6922 9.81479 21.4672 9.13042ZM7.16797 10.0257C7.16797 9.4937 7.23594 8.97573 7.36953 8.4812C7.49375 8.47183 7.61797 8.45542 7.74219 8.45542C10.3156 8.45542 12.4977 10.2039 13.2242 12.6039C13.393 13.157 13.482 13.7476 13.482 14.357C13.482 14.6546 13.4563 14.9476 13.4141 15.2359C13.4 15.3273 13.3789 15.4164 13.3602 15.5054C13.3344 15.6437 13.2969 15.7773 13.2617 15.9109C13.1492 15.9179 13.0344 15.925 12.9195 15.925C9.74609 15.9296 7.16797 13.2812 7.16797 10.0257ZM19.1141 15.4609C18.0289 16.5718 16.5875 17.1835 15.05 17.1835C14.9352 17.1835 14.8203 17.1789 14.7078 17.1695C14.6703 17.0359 14.6352 16.9 14.6094 16.764C14.593 16.675 14.5695 16.5859 14.5555 16.4945C14.5133 16.2062 14.4875 15.9132 14.4875 15.6132C14.4875 15.4046 14.4992 15.1984 14.5203 14.9945C14.525 14.957 14.532 14.9218 14.5367 14.8843C14.5578 14.7179 14.5813 14.5492 14.6141 14.3875C14.6188 14.364 14.6258 14.3406 14.6328 14.3148C14.6727 14.139 14.7148 13.9679 14.7687 13.7968C14.7734 13.7851 14.7781 13.771 14.7828 13.7593C14.8414 13.5812 14.907 13.4031 14.9797 13.232C14.982 13.225 14.9844 13.2203 14.9891 13.2132C15.0664 13.0375 15.1508 12.864 15.2422 12.6976L15.2492 12.6835C15.3406 12.5171 15.4414 12.3578 15.5492 12.2031C15.5562 12.1914 15.5656 12.182 15.5727 12.1703C15.6734 12.025 15.7813 11.8843 15.8961 11.7507C15.9148 11.7273 15.9359 11.7062 15.957 11.6828C16.0602 11.5656 16.1656 11.4507 16.2758 11.3429C16.3133 11.3054 16.3531 11.2703 16.393 11.2328C16.4867 11.146 16.5828 11.0593 16.6813 10.9796C16.7445 10.9281 16.8102 10.8789 16.8758 10.8296C16.9531 10.771 17.0328 10.7148 17.1125 10.6609C17.2039 10.6 17.3 10.5414 17.3961 10.4851C17.4523 10.4523 17.5109 10.4171 17.5695 10.3867C17.6891 10.321 17.8133 10.2601 17.9375 10.2039L18.05 10.1546C18.1953 10.0937 18.3406 10.0375 18.4906 9.98823C18.5141 9.9812 18.5375 9.97417 18.5609 9.9648C18.7203 9.91558 18.8797 9.87339 19.0438 9.83589L19.1141 9.82183C19.2711 9.78901 19.4305 9.76558 19.5922 9.74683C19.6391 9.74214 19.6836 9.73745 19.7305 9.73511C19.8617 9.72339 19.9977 9.71636 20.1312 9.71401C20.2156 9.71401 20.3 9.71636 20.3844 9.7187C20.457 9.72105 20.5297 9.72808 20.6023 9.73276C20.7359 10.2273 20.8039 10.7453 20.8039 11.2773C20.8016 12.864 20.2039 14.3476 19.1141 15.4609Z" fill="#3F8353"/>
</svg>
