<svg width="280" height="35" viewBox="0 0 280 35" fill="none" xmlns="http://www.w3.org/2000/svg">
<rect y="17" width="10" height="18" rx="5" fill="#79B46E"/>
<rect x="18" y="8" width="10" height="27" rx="5" fill="#FACF55"/>
<rect x="36" y="13" width="10" height="22" rx="5" fill="#7FB0C6"/>
<rect x="54" y="3" width="10" height="32" rx="5" fill="#F9A774"/>
<rect x="72" y="19" width="10" height="16" rx="5" fill="#79B46E"/>
<rect x="90" y="11" width="10" height="24" rx="5" fill="#FACF55"/>
<rect x="108" y="6" width="10" height="29" rx="5" fill="#7FB0C6"/>
<rect x="126" y="16" width="10" height="19" rx="5" fill="#F9A774"/>
<rect x="144" width="10" height="35" rx="5" fill="#79B46E"/>
<rect x="162" y="12" width="10" height="23" rx="5" fill="#FACF55"/>
<rect x="180" y="7" width="10" height="28" rx="5" fill="#7FB0C6"/>
<rect x="198" y="18" width="10" height="17" rx="5" fill="#F9A774"/>
<rect x="216" y="10" width="10" height="25" rx="5" fill="#79B46E"/>
<rect x="234" y="3" width="10" height="32" rx="5" fill="#FACF55"/>
<rect x="252" y="15" width="10" height="20" rx="5" fill="#7FB0C6"/>
<rect x="270" y="5" width="10" height="30" rx="5" fill="#F9A774"/>
</svg>
