<svg width="317" height="230" viewBox="0 0 317 230" fill="none" xmlns="http://www.w3.org/2000/svg">
<path d="M3.29126 117.178L96.5071 95.7816H218.8L311.16 108.749L273.532 138.575L229.917 128.849L212.813 145.383H107.625L87.1 128.849L43.4853 142.789L3.29126 117.178Z" fill="#D2FA72" stroke="#3F8353" stroke-width="1.2381"/>
<path d="M1.57983 93.2328L94.7957 71.8362H217.088L309.449 84.8039L271.82 114.629L228.206 104.904L211.102 121.437H105.913L85.3886 104.904L41.7738 118.844L1.57983 93.2328Z" fill="#D2FA72" stroke="#3F8353" stroke-width="1.2381"/>
<path d="M5.0022 166.779L98.2181 145.383H220.51L312.871 158.35L275.243 188.176L231.628 178.45L214.524 194.984H109.336L88.811 178.45L45.1962 192.39L5.0022 166.779Z" fill="#D2FA72" stroke="#3F8353" stroke-width="1.2381"/>
<path d="M3.29126 142.834L96.5071 121.437H218.8L311.16 134.405L273.532 164.23L229.917 154.505L212.813 171.038H107.625L87.1 154.505L43.4853 168.445L3.29126 142.834Z" fill="#D2FA72" stroke="#3F8353" stroke-width="1.2381"/>
<path d="M6.71094 200.986L99.9268 179.59H222.219L314.58 192.557L276.951 222.383L233.337 212.657L216.233 229.191H111.044L90.5197 212.657L46.9049 226.597L6.71094 200.986Z" fill="#D2FA72" stroke="#3F8353" stroke-width="1.2381"/>
<path d="M5.0022 177.042L98.2181 155.646H220.51L312.871 168.613L275.243 198.439L231.628 188.713L214.524 205.247H109.336L88.811 188.713L45.1962 202.653L5.0022 177.042Z" fill="#D2FA72" stroke="#3F8353" stroke-width="1.2381"/>
<path d="M90.1073 124.413C93.6296 122.054 98.9267 108.368 98.9267 108.368L112.658 112.565C112.658 112.565 117.297 113.322 123.575 118.202C129.854 123.081 150.223 103.46 149.303 93.3126L121.11 67.5193C121.11 67.5193 154.628 67.5193 143.156 51.6079C131.684 35.6964 152.113 52.5441 121.11 34.0662C90.1073 15.5882 77.1437 57.2322 77.1437 57.2322L68.1997 46.4996C68.1997 46.4996 60.6576 35.7836 50.766 39.493C40.8743 43.2024 37.4939 53.5396 37.9477 57.2322C38.4014 60.9249 45.8068 72.2856 45.8068 72.2856C45.8068 72.2856 37.4728 72.3339 36.0483 74.8724C34.6238 77.411 34.6238 88.1026 34.6238 88.1026C34.6238 88.1026 31.1404 100.345 36.4196 104.356C41.6987 108.368 38.6495 108.212 44.7078 109.71C50.766 111.207 64.306 101.044 64.306 101.044C64.306 101.044 62.965 118.475 68.1997 122.054C73.4343 125.633 86.585 126.771 90.1073 124.413Z" fill="#FDFFD1" stroke="#3F8353" stroke-width="1.2381"/>
<path d="M122.161 137.45C132.709 137.45 141.212 145.622 141.212 155.645C141.212 165.668 132.709 173.841 122.161 173.841C111.614 173.84 103.112 165.668 103.112 155.645C103.112 145.622 111.614 137.45 122.161 137.45Z" fill="white" stroke="#3F8353" stroke-width="1.2381"/>
<circle cx="87.0967" cy="77.1134" r="6.22248" fill="white" stroke="#3F8353" stroke-width="1.2381"/>
<path d="M161.94 102.178C165.462 99.8188 170.759 86.1326 170.759 86.1326L184.491 90.3301C184.491 90.3301 189.13 91.0871 195.408 95.9667C201.686 100.846 222.056 81.2253 221.136 71.0776L192.943 45.2844C192.943 45.2844 226.461 45.2844 214.989 29.3729C203.517 13.4615 223.946 30.3091 192.943 11.8312C161.94 -6.6467 148.976 34.9973 148.976 34.9973L140.032 24.2647C140.032 24.2647 132.49 13.5487 122.599 17.2581C112.707 20.9674 109.327 31.3047 109.78 34.9973C110.234 38.69 117.64 50.0507 117.64 50.0507C117.64 50.0507 109.306 50.099 107.881 52.6375C106.457 55.176 106.457 65.8676 106.457 65.8676C106.457 65.8676 102.973 78.1099 108.252 82.1212C113.531 86.1326 110.482 85.9772 116.541 87.4748C122.599 88.9725 136.139 78.8096 136.139 78.8096C136.139 78.8096 134.798 96.2399 140.032 99.8188C145.267 103.398 158.418 104.537 161.94 102.178Z" fill="#FDFFD1" stroke="#3F8353" stroke-width="1.2381"/>
<circle cx="158.934" cy="54.8786" r="6.22248" fill="white" stroke="#3F8353" stroke-width="1.2381"/>
<path d="M235.656 25.6673C231.936 27.701 225.434 40.8573 225.434 40.8573L212.134 35.446C212.134 35.446 207.581 34.2762 201.766 28.8535C195.95 23.4307 173.903 41.147 173.91 51.3363L199.678 79.5527C199.678 79.5527 166.295 76.5484 176.295 93.4241C186.294 110.3 167.457 91.6888 196.679 112.871C225.901 134.054 242.545 93.7392 242.545 93.7392L250.491 105.23C250.491 105.23 257.043 116.579 267.227 113.771C277.411 110.964 281.705 100.971 281.584 97.2525C281.463 93.534 275.105 81.5553 275.105 81.5553C275.105 81.5553 283.41 82.2542 285.057 79.8536C286.703 77.4529 287.661 66.8044 287.661 66.8044C287.661 66.8044 292.228 54.9236 287.329 50.4552C282.431 45.9868 285.454 46.4149 279.555 44.3803C273.655 42.3457 259.258 51.254 259.258 51.254C259.258 51.254 262.156 34.014 257.264 29.9803C252.371 25.9466 239.375 23.6337 235.656 25.6673Z" fill="#FDFFD1" stroke="#3F8353" stroke-width="1.2381"/>
<circle cx="234.411" cy="73.0445" r="6.22248" transform="rotate(-174.858 234.411 73.0445)" fill="white" stroke="#3F8353" stroke-width="1.2381"/>
<path d="M132.424 144.292C137.147 144.292 141.212 149.227 141.212 155.645C141.212 162.063 137.147 166.999 132.424 166.999C127.701 166.999 123.636 162.063 123.636 155.645C123.636 149.227 127.701 144.292 132.424 144.292Z" fill="white"/>
<path d="M132.424 144.292C137.147 144.292 141.212 149.227 141.212 155.645C141.212 162.063 137.147 166.999 132.424 166.999C127.701 166.999 123.636 162.063 123.636 155.645C123.636 149.227 127.701 144.292 132.424 144.292Z" fill="#3F8353"/>
<path d="M132.424 144.292C137.147 144.292 141.212 149.227 141.212 155.645C141.212 162.063 137.147 166.999 132.424 166.999C127.701 166.999 123.636 162.063 123.636 155.645C123.636 149.227 127.701 144.292 132.424 144.292Z" stroke="#3F8353" stroke-width="1.2381"/>
<path d="M185.443 137.45C195.991 137.45 204.494 145.622 204.494 155.645C204.494 165.668 195.99 173.841 185.443 173.841C174.896 173.84 166.393 165.668 166.393 155.645C166.393 145.622 174.896 137.45 185.443 137.45Z" fill="white" stroke="#3F8353" stroke-width="1.2381"/>
<path d="M195.709 144.292C200.431 144.292 204.497 149.227 204.497 155.645C204.497 162.063 200.431 166.999 195.709 166.999C190.986 166.999 186.921 162.063 186.921 155.645C186.921 149.227 190.986 144.292 195.709 144.292Z" fill="white"/>
<path d="M195.709 144.292C200.431 144.292 204.497 149.227 204.497 155.645C204.497 162.063 200.431 166.999 195.709 166.999C190.986 166.999 186.921 162.063 186.921 155.645C186.921 149.227 190.986 144.292 195.709 144.292Z" fill="#3F8353"/>
<path d="M195.709 144.292C200.431 144.292 204.497 149.227 204.497 155.645C204.497 162.063 200.431 166.999 195.709 166.999C190.986 166.999 186.921 162.063 186.921 155.645C186.921 149.227 190.986 144.292 195.709 144.292Z" stroke="#3F8353" stroke-width="1.2381"/>
</svg>
