<svg width="67" height="64" viewBox="0 0 67 64" fill="none" xmlns="http://www.w3.org/2000/svg">
<rect x="16.3704" y="43.369" width="27.36" height="20.16" rx="8.64" fill="#F9A774"/>
<rect x="28.6106" y="23.2091" width="4.32" height="30.24" rx="2.16" fill="#3F8353"/>
<circle cx="15.9337" cy="30.5029" r="12.24" transform="rotate(22 15.9337 30.5029)" fill="#F4C3B0"/>
<circle cx="48.5792" cy="17.8084" r="13.68" transform="rotate(-22 48.5792 17.8084)" fill="#F4C3B0"/>
<circle cx="31.4904" cy="43.3689" r="10.08" fill="#E4F3D7"/>
<circle cx="28.2502" cy="40.8489" r="1.08" fill="#293728"/>
<circle cx="36.1701" cy="40.8489" r="1.08" fill="#293728"/>
<path d="M32.7079 45.7042V43.6746H33.6881V47.2091H32.747V46.5671H32.7102C32.6304 46.7742 32.4977 46.9406 32.3121 47.0664C32.128 47.1922 31.9032 47.2551 31.6378 47.2551C31.4016 47.2551 31.1937 47.2014 31.0142 47.094C30.8347 46.9867 30.6944 46.834 30.5931 46.6361C30.4934 46.4382 30.4428 46.2012 30.4412 45.9251V43.6746H31.4215V45.7502C31.4231 45.9588 31.4791 46.1237 31.5895 46.2449C31.7 46.3661 31.848 46.4267 32.0336 46.4267C32.1518 46.4267 32.2622 46.3999 32.365 46.3462C32.4678 46.291 32.5506 46.2096 32.6135 46.1023C32.6779 45.9949 32.7094 45.8622 32.7079 45.7042Z" fill="#3F8353"/>
</svg>
