<svg width="393" height="192" viewBox="0 0 393 192" fill="none" xmlns="http://www.w3.org/2000/svg">
<rect x="-9" width="412" height="192" fill="#E4F3D7"/>
<rect y="130" width="407" height="62" fill="#79B46E"/>
<path d="M24.9023 98.143L74.0417 86.8636H138.509L187.197 93.6996L167.361 109.422L144.37 104.295L135.353 113.011H79.9024L69.0827 104.295L46.0909 111.644L24.9023 98.143Z" fill="#D2FA72" stroke="#3F8353" stroke-width="0.75688"/>
<path d="M24 85.5199L73.1394 74.2406H137.607L186.295 81.0766L166.459 96.7993L143.467 91.6723L134.451 100.388H79L68.1803 91.6723L45.1885 99.021L24 85.5199Z" fill="#D2FA72" stroke="#3F8353" stroke-width="0.75688"/>
<path d="M25.8036 124.291L74.9429 113.011H139.41L188.099 119.847L168.263 135.57L145.271 130.443L136.254 139.159H80.8036L69.9839 130.443L46.9921 137.792L25.8036 124.291Z" fill="#D2FA72" stroke="#3F8353" stroke-width="0.75688"/>
<path d="M24.9023 111.667L74.0417 100.388H138.509L187.197 107.224L167.361 122.947L144.37 117.82L135.353 126.536H79.9024L69.0827 117.82L46.0909 125.168L24.9023 111.667Z" fill="#D2FA72" stroke="#3F8353" stroke-width="0.75688"/>
<path d="M26.7049 142.323L75.8443 131.044H140.311L189 137.88L169.164 153.602L146.172 148.476L137.156 157.191H81.7049L70.8852 148.476L47.8934 155.824L26.7049 142.323Z" fill="#D2FA72" stroke="#3F8353" stroke-width="0.75688"/>
<path d="M25.8036 129.7L74.9429 118.421H139.41L188.099 125.257L168.263 140.98L145.271 135.853L136.254 144.569H80.8036L69.9839 135.853L46.9921 143.201L25.8036 129.7Z" fill="#D2FA72" stroke="#3F8353" stroke-width="0.75688"/>
<path d="M70.668 101.957C72.5248 100.713 75.3172 93.4984 75.3172 93.4984L82.5558 95.7111C82.5558 95.7111 85.0011 96.1102 88.3108 98.6825C91.6205 101.255 102.359 90.9115 101.874 85.5621L87.0114 71.965C87.0114 71.965 104.68 71.965 98.633 63.5772C92.5855 55.1893 103.355 64.0707 87.0114 54.3299C70.668 44.5892 63.8341 66.5421 63.8341 66.5421L59.1192 60.8843C59.1192 60.8843 55.1434 55.2353 49.9289 57.1907C44.7145 59.1461 42.9325 64.5955 43.1717 66.5421C43.4109 68.4887 47.3147 74.4776 47.3147 74.4776C47.3147 74.4776 42.9214 74.503 42.1704 75.8412C41.4195 77.1794 41.4195 82.8156 41.4195 82.8156C41.4195 82.8156 39.5832 89.2692 42.3661 91.3838C45.149 93.4984 43.5417 93.4165 46.7353 94.206C49.9289 94.9954 57.0666 89.638 57.0666 89.638C57.0666 89.638 56.3597 98.8265 59.1192 100.713C61.8787 102.6 68.8112 103.2 70.668 101.957Z" fill="#FDFFD1" stroke="#3F8353" stroke-width="0.75688"/>
<path d="M87.5661 108.882C93.0995 108.882 97.5563 113.168 97.5563 118.421C97.5563 123.674 93.0996 127.961 87.5661 127.961C82.0325 127.961 77.5759 123.674 77.5759 118.421C77.5759 113.168 82.0325 108.882 87.5661 108.882Z" fill="white" stroke="#3F8353" stroke-width="0.75688"/>
<circle cx="69.0806" cy="77.0227" r="3.22812" fill="white" stroke="#3F8353" stroke-width="0.75688"/>
<path d="M108.535 90.2354C110.392 88.9919 113.184 81.7771 113.184 81.7771L120.423 83.9898C120.423 83.9898 122.868 84.3889 126.178 86.9612C129.488 89.5335 140.226 79.1902 139.741 73.8407L124.879 60.2437C124.879 60.2437 142.548 60.2437 136.5 51.8559C130.453 43.468 141.222 52.3494 124.879 42.6086C108.535 32.8679 101.701 54.8208 101.701 54.8208L96.9865 49.163C96.9865 49.163 93.0107 43.514 87.7962 45.4694C82.5818 47.4248 80.7998 52.8742 81.039 54.8208C81.2782 56.7674 85.182 62.7562 85.182 62.7562C85.182 62.7562 80.7887 62.7817 80.0377 64.1199C79.2868 65.4581 79.2868 71.0943 79.2868 71.0943C79.2868 71.0943 77.4505 77.5478 80.2334 79.6625C83.0163 81.7771 81.409 81.6951 84.6026 82.4846C87.7962 83.2741 94.9339 77.9167 94.9339 77.9167C94.9339 77.9167 94.227 87.1052 96.9865 88.9919C99.746 90.8785 106.678 91.4788 108.535 90.2354Z" fill="#FDFFD1" stroke="#3F8353" stroke-width="0.75688"/>
<circle cx="106.95" cy="65.3015" r="3.22812" fill="white" stroke="#3F8353" stroke-width="0.75688"/>
<path d="M147.394 49.9025C145.434 50.9746 142.006 57.9101 142.006 57.9101L134.995 55.0574C134.995 55.0574 132.595 54.4408 129.529 51.5822C126.463 48.7235 114.841 58.0627 114.845 63.4341L128.429 78.3086C128.429 78.3086 110.831 76.7249 116.102 85.621C121.373 94.5171 111.443 84.7062 126.848 95.8727C142.252 107.039 151.026 85.7871 151.026 85.7871L155.215 91.8447C155.215 91.8447 158.669 97.8273 164.038 96.3472C169.406 94.867 171.67 89.5994 171.606 87.6391C171.542 85.6789 168.191 79.3643 168.191 79.3643C168.191 79.3643 172.569 79.7327 173.437 78.4672C174.304 77.2017 174.81 71.5882 174.81 71.5882C174.81 71.5882 177.217 65.3252 174.635 62.9697C172.053 60.6141 173.646 60.8398 170.536 59.7672C167.426 58.6946 159.837 63.3908 159.837 63.3908C159.837 63.3908 161.365 54.3026 158.785 52.1762C156.206 50.0498 149.355 48.8305 147.394 49.9025Z" fill="#FDFFD1" stroke="#3F8353" stroke-width="0.75688"/>
<circle cx="146.739" cy="74.8777" r="3.22812" transform="rotate(-174.858 146.739 74.8777)" fill="white" stroke="#3F8353" stroke-width="0.75688"/>
<path d="M92.975 112.489C95.4248 112.489 97.556 115.054 97.556 118.421C97.556 121.788 95.4248 124.354 92.975 124.354C90.5252 124.354 88.3949 121.788 88.3949 118.421C88.3949 115.054 90.5251 112.489 92.975 112.489Z" fill="white"/>
<path d="M92.975 112.489C95.4248 112.489 97.556 115.054 97.556 118.421C97.556 121.788 95.4248 124.354 92.975 124.354C90.5252 124.354 88.3949 121.788 88.3949 118.421C88.3949 115.054 90.5251 112.489 92.975 112.489Z" fill="#3F8353"/>
<path d="M92.975 112.489C95.4248 112.489 97.556 115.054 97.556 118.421C97.556 121.788 95.4248 124.354 92.975 124.354C90.5252 124.354 88.3949 121.788 88.3949 118.421C88.3949 115.054 90.5251 112.489 92.975 112.489Z" stroke="#3F8353" stroke-width="0.75688"/>
<path d="M120.925 108.882C126.459 108.882 130.916 113.168 130.916 118.421C130.916 123.674 126.459 127.961 120.925 127.961C115.392 127.961 110.935 123.674 110.935 118.421C110.935 113.168 115.392 108.882 120.925 108.882Z" fill="white" stroke="#3F8353" stroke-width="0.75688"/>
<path d="M126.336 112.489C128.786 112.489 130.917 115.054 130.917 118.421C130.917 121.788 128.786 124.354 126.336 124.354C123.886 124.354 121.756 121.788 121.756 118.421C121.756 115.054 123.886 112.489 126.336 112.489Z" fill="white"/>
<path d="M126.336 112.489C128.786 112.489 130.917 115.054 130.917 118.421C130.917 121.788 128.786 124.354 126.336 124.354C123.886 124.354 121.756 121.788 121.756 118.421C121.756 115.054 123.886 112.489 126.336 112.489Z" fill="#3F8353"/>
<path d="M126.336 112.489C128.786 112.489 130.917 115.054 130.917 118.421C130.917 121.788 128.786 124.354 126.336 124.354C123.886 124.354 121.756 121.788 121.756 118.421C121.756 115.054 123.886 112.489 126.336 112.489Z" stroke="#3F8353" stroke-width="0.75688"/>
<circle cx="314.99" cy="105.99" r="20.4896" fill="#3F8353" stroke="#315C3B"/>
<rect x="265.5" y="91.5" width="11" height="51" rx="5.5" fill="#F9A774" stroke="#A55D31"/>
<circle cx="270" cy="78" r="30.5" fill="#3F8353" stroke="#315C3B"/>
<rect x="312.104" y="115.292" width="7.125" height="34.2083" rx="3.5625" fill="#F9A774" stroke="#A55D31"/>
<circle cx="345" cy="39" r="22.5" fill="#FACF55" stroke="#D88532"/>
</svg>
