<svg width="28" height="28" viewBox="0 0 28 28" fill="none" xmlns="http://www.w3.org/2000/svg">
<circle cx="14" cy="14" r="14" fill="#E4F3D7"/>
<path d="M18.4328 21.9018C18.0998 19.4799 17.0806 17.1892 15.5468 15.3123V15.1205L15.1734 10.2465C15.1027 9.29791 14.2551 8.58144 13.3065 8.67226C13.135 8.69244 12.9533 8.71262 12.7717 8.7429C11.7625 8.92454 10.2489 10.4887 9.66358 11.1345C9.50212 11.3061 9.42139 11.5382 9.42139 11.7703L9.46175 14.2527C9.47184 14.6967 9.83513 15.06 10.2791 15.06C10.7332 15.06 11.0965 14.6967 11.0965 14.2426V12.3959L12.1359 11.5886L12.2469 15.1811L12.2671 15.2618C12.2671 15.2618 12.2974 15.2921 12.3176 15.3022C14.3863 17.0581 15.7587 19.5304 16.132 22.2147C16.2128 22.7899 16.7072 23.2137 17.2824 23.2137C17.3329 23.2137 17.3934 23.2137 17.4439 23.2036C18.0796 23.1128 18.5237 22.5275 18.4328 21.9018Z" stroke="#3F8353" stroke-width="0.762443"/>
<path d="M16.7734 11.6245L18.4688 12.5428C19.0339 12.8455 19.1751 13.5922 18.7614 14.0766C18.4788 14.4096 18.0146 14.5206 17.611 14.3592L16.8945 14.0665L16.7734 11.6245ZM12.6865 15.671C12.0406 17.6489 10.9104 19.425 9.36648 20.8781C8.90228 21.312 8.87201 22.0487 9.31602 22.5129C9.54812 22.7551 9.85086 22.8762 10.1637 22.8762C10.4462 22.8762 10.7288 22.7752 10.9609 22.5633C12.4645 21.1506 13.6351 19.4754 14.4323 17.6186C13.9277 16.9122 13.3424 16.2462 12.6865 15.671Z" stroke="#3F8353" stroke-width="0.762443"/>
<path d="M11.4902 6.19988C11.4902 6.78333 11.722 7.34288 12.1346 7.75544C12.5471 8.168 13.1067 8.39977 13.6901 8.39977C14.2736 8.39977 14.8331 8.168 15.2457 7.75544C15.6582 7.34288 15.89 6.78333 15.89 6.19988C15.89 5.61644 15.6582 5.05689 15.2457 4.64433C14.8331 4.23177 14.2736 4 13.6901 4C13.1067 4 12.5471 4.23177 12.1346 4.64433C11.722 5.05689 11.4902 5.61644 11.4902 6.19988Z" stroke="#3F8353" stroke-width="0.762443"/>
</svg>
