<svg width="277" height="170" viewBox="0 0 277 170" fill="none" xmlns="http://www.w3.org/2000/svg">
<rect width="277" height="170" rx="26" fill="#E4F3D7"/>
<rect y="22" width="265.423" height="123.692" fill="#E4F3D7"/>
<rect x="5.79785" y="105.598" width="264.202" height="40.247" fill="#79B46E"/>
<path d="M23.692 143.029V142.293L25.6439 140.38C25.8306 140.191 25.9862 140.024 26.1106 139.877C26.2351 139.731 26.3284 139.589 26.3907 139.452C26.4529 139.314 26.484 139.168 26.484 139.012C26.484 138.835 26.4437 138.683 26.3632 138.557C26.2827 138.429 26.172 138.33 26.031 138.26C25.8901 138.191 25.73 138.156 25.5506 138.156C25.3657 138.156 25.2038 138.194 25.0647 138.271C24.9256 138.346 24.8176 138.453 24.7407 138.592C24.6657 138.731 24.6282 138.897 24.6282 139.089H23.6591C23.6591 138.732 23.7405 138.422 23.9034 138.159C24.0663 137.895 24.2905 137.691 24.576 137.546C24.8634 137.402 25.1928 137.33 25.5643 137.33C25.9413 137.33 26.2726 137.4 26.5581 137.541C26.8436 137.682 27.0651 137.875 27.2225 138.12C27.3817 138.365 27.4613 138.645 27.4613 138.96C27.4613 139.171 27.4211 139.378 27.3405 139.581C27.26 139.784 27.1182 140.009 26.915 140.256C26.7137 140.503 26.4309 140.802 26.0667 141.154L25.0976 142.139V142.178H27.5464V143.029H23.692ZM30.5718 143.136C30.1197 143.136 29.7317 143.021 29.4077 142.793C29.0856 142.562 28.8376 142.23 28.6638 141.796C28.4917 141.361 28.4057 140.836 28.4057 140.223C28.4075 139.61 28.4945 139.088 28.6665 138.658C28.8404 138.226 29.0884 137.897 29.4105 137.67C29.7344 137.443 30.1215 137.33 30.5718 137.33C31.022 137.33 31.4091 137.443 31.733 137.67C32.057 137.897 32.305 138.226 32.477 138.658C32.6509 139.09 32.7378 139.612 32.7378 140.223C32.7378 140.838 32.6509 141.363 32.477 141.799C32.305 142.233 32.057 142.564 31.733 142.793C31.4109 143.021 31.0238 143.136 30.5718 143.136ZM30.5718 142.277C30.9232 142.277 31.2004 142.104 31.4036 141.758C31.6086 141.41 31.7111 140.898 31.7111 140.223C31.7111 139.777 31.6644 139.401 31.571 139.098C31.4777 138.794 31.3459 138.565 31.1757 138.411C31.0055 138.256 30.8042 138.178 30.5718 138.178C30.2222 138.178 29.9458 138.352 29.7427 138.699C29.5395 139.045 29.437 139.553 29.4352 140.223C29.4334 140.672 29.4782 141.049 29.5697 141.354C29.6631 141.66 29.7948 141.89 29.965 142.046C30.1353 142.2 30.3375 142.277 30.5718 142.277ZM33.6499 143.029V142.293L35.6018 140.38C35.7885 140.191 35.9441 140.024 36.0685 139.877C36.193 139.731 36.2863 139.589 36.3486 139.452C36.4108 139.314 36.4419 139.168 36.4419 139.012C36.4419 138.835 36.4016 138.683 36.3211 138.557C36.2406 138.429 36.1298 138.33 35.9889 138.26C35.848 138.191 35.6879 138.156 35.5085 138.156C35.3236 138.156 35.1617 138.194 35.0226 138.271C34.8835 138.346 34.7755 138.453 34.6986 138.592C34.6236 138.731 34.5861 138.897 34.5861 139.089H33.617C33.617 138.732 33.6984 138.422 33.8613 138.159C34.0242 137.895 34.2484 137.691 34.5339 137.546C34.8213 137.402 35.1507 137.33 35.5222 137.33C35.8992 137.33 36.2305 137.4 36.516 137.541C36.8015 137.682 37.023 137.875 37.1804 138.12C37.3396 138.365 37.4192 138.645 37.4192 138.96C37.4192 139.171 37.379 139.378 37.2984 139.581C37.2179 139.784 37.0761 140.009 36.8729 140.256C36.6716 140.503 36.3888 140.802 36.0246 141.154L35.0555 142.139V142.178H37.5043V143.029H33.6499ZM40.5104 143.106C40.2414 143.104 39.9788 143.057 39.7225 142.966C39.4663 142.872 39.2357 142.721 39.0307 142.513C38.8257 142.302 38.6628 142.023 38.5421 141.675C38.4213 141.326 38.3618 140.893 38.3636 140.377C38.3636 139.896 38.4149 139.466 38.5173 139.089C38.6198 138.712 38.7672 138.394 38.9593 138.134C39.1515 137.872 39.383 137.673 39.6539 137.535C39.9266 137.398 40.2313 137.33 40.5681 137.33C40.9213 137.33 41.2343 137.399 41.507 137.538C41.7815 137.677 42.003 137.868 42.1713 138.109C42.3397 138.349 42.444 138.62 42.4843 138.922H41.4823C41.431 138.706 41.3258 138.534 41.1666 138.406C41.0092 138.276 40.8097 138.211 40.5681 138.211C40.1783 138.211 39.8781 138.38 39.6676 138.719C39.459 139.057 39.3537 139.522 39.3519 140.113H39.3903C39.48 139.952 39.5962 139.814 39.739 139.699C39.8818 139.583 40.0428 139.495 40.2222 139.432C40.4034 139.368 40.5946 139.336 40.7959 139.336C41.1254 139.336 41.421 139.415 41.6827 139.572C41.9462 139.73 42.1549 139.947 42.3086 140.223C42.4623 140.498 42.5383 140.812 42.5365 141.167C42.5383 141.537 42.4541 141.869 42.2839 142.164C42.1137 142.457 41.8767 142.687 41.5729 142.856C41.2691 143.024 40.9149 143.108 40.5104 143.106ZM40.5049 142.282C40.7044 142.282 40.8829 142.234 41.0403 142.137C41.1977 142.04 41.3221 141.909 41.4136 141.744C41.5051 141.579 41.55 141.394 41.5482 141.189C41.55 140.988 41.5061 140.806 41.4164 140.643C41.3285 140.48 41.2068 140.351 41.0513 140.256C40.8957 140.161 40.7182 140.113 40.5187 140.113C40.3704 140.113 40.2322 140.142 40.1041 140.198C39.976 140.255 39.8644 140.334 39.7692 140.434C39.674 140.533 39.599 140.649 39.5441 140.78C39.491 140.91 39.4636 141.049 39.4617 141.198C39.4636 141.394 39.5093 141.574 39.599 141.739C39.6887 141.903 39.8122 142.035 39.9696 142.134C40.127 142.233 40.3054 142.282 40.5049 142.282ZM43.846 143.089C43.6794 143.089 43.5367 143.031 43.4177 142.914C43.2987 142.796 43.2402 142.654 43.242 142.485C43.2402 142.321 43.2987 142.18 43.4177 142.062C43.5367 141.945 43.6794 141.887 43.846 141.887C44.007 141.887 44.147 141.945 44.266 142.062C44.3868 142.18 44.4481 142.321 44.4499 142.485C44.4481 142.597 44.4188 142.698 44.3621 142.79C44.3072 142.881 44.234 142.955 44.1425 143.01C44.0528 143.063 43.954 143.089 43.846 143.089ZM47.3243 143.136C46.8722 143.136 46.4842 143.021 46.1603 142.793C45.8381 142.562 45.5902 142.23 45.4163 141.796C45.2442 141.361 45.1582 140.836 45.1582 140.223C45.1601 139.61 45.247 139.088 45.419 138.658C45.5929 138.226 45.8409 137.897 46.163 137.67C46.487 137.443 46.874 137.33 47.3243 137.33C47.7745 137.33 48.1616 137.443 48.4855 137.67C48.8095 137.897 49.0575 138.226 49.2295 138.658C49.4034 139.09 49.4903 139.612 49.4903 140.223C49.4903 140.838 49.4034 141.363 49.2295 141.799C49.0575 142.233 48.8095 142.564 48.4855 142.793C48.1634 143.021 47.7763 143.136 47.3243 143.136ZM47.3243 142.277C47.6757 142.277 47.9529 142.104 48.1561 141.758C48.3611 141.41 48.4636 140.898 48.4636 140.223C48.4636 139.777 48.4169 139.401 48.3236 139.098C48.2302 138.794 48.0984 138.565 47.9282 138.411C47.758 138.256 47.5567 138.178 47.3243 138.178C46.9747 138.178 46.6983 138.352 46.4952 138.699C46.292 139.045 46.1895 139.553 46.1877 140.223C46.1859 140.672 46.2307 141.049 46.3222 141.354C46.4156 141.66 46.5474 141.89 46.7176 142.046C46.8878 142.2 47.09 142.277 47.3243 142.277ZM52.3571 143.106C51.9911 143.106 51.6634 143.037 51.3743 142.9C51.0851 142.761 50.8554 142.57 50.6852 142.329C50.5168 142.087 50.4271 141.811 50.4162 141.5H51.4045C51.4228 141.73 51.5225 141.919 51.7037 142.065C51.8849 142.21 52.1027 142.282 52.3571 142.282C52.5566 142.282 52.7341 142.236 52.8897 142.145C53.0453 142.053 53.1679 141.926 53.2576 141.763C53.3472 141.6 53.3912 141.415 53.3893 141.206C53.3912 140.994 53.3463 140.805 53.2548 140.64C53.1633 140.476 53.0379 140.347 52.8787 140.253C52.7195 140.158 52.5365 140.111 52.3296 140.111C52.1613 140.109 51.9956 140.14 51.8327 140.204C51.6699 140.268 51.5408 140.352 51.4457 140.456L50.526 140.305L50.8197 137.406H54.0811V138.257H51.6625L51.5006 139.748H51.5335C51.6378 139.626 51.7852 139.524 51.9755 139.443C52.1658 139.361 52.3745 139.32 52.6014 139.32C52.9418 139.32 53.2457 139.4 53.5129 139.561C53.7801 139.721 53.9906 139.94 54.1443 140.22C54.298 140.5 54.3749 140.821 54.3749 141.181C54.3749 141.553 54.2889 141.884 54.1168 142.175C53.9466 142.464 53.7096 142.692 53.4058 142.859C53.1038 143.023 52.7542 143.106 52.3571 143.106ZM55.729 143.089C55.5625 143.089 55.4197 143.031 55.3007 142.914C55.1818 142.796 55.1232 142.654 55.125 142.485C55.1232 142.321 55.1818 142.18 55.3007 142.062C55.4197 141.945 55.5625 141.887 55.729 141.887C55.8901 141.887 56.0301 141.945 56.149 142.062C56.2698 142.18 56.3311 142.321 56.333 142.485C56.3311 142.597 56.3019 142.698 56.2451 142.79C56.1902 142.881 56.117 142.955 56.0255 143.01C55.9358 143.063 55.837 143.089 55.729 143.089ZM57.3481 143.029V142.293L59.3 140.38C59.4866 140.191 59.6422 140.024 59.7667 139.877C59.8911 139.731 59.9845 139.589 60.0467 139.452C60.1089 139.314 60.14 139.168 60.14 139.012C60.14 138.835 60.0998 138.683 60.0192 138.557C59.9387 138.429 59.828 138.33 59.687 138.26C59.5461 138.191 59.386 138.156 59.2066 138.156C59.0218 138.156 58.8598 138.194 58.7207 138.271C58.5816 138.346 58.4736 138.453 58.3968 138.592C58.3217 138.731 58.2842 138.897 58.2842 139.089H57.3151C57.3151 138.732 57.3966 138.422 57.5594 138.159C57.7223 137.895 57.9465 137.691 58.232 137.546C58.5194 137.402 58.8488 137.33 59.2203 137.33C59.5974 137.33 59.9286 137.4 60.2141 137.541C60.4997 137.682 60.7211 137.875 60.8785 138.12C61.0377 138.365 61.1174 138.645 61.1174 138.96C61.1174 139.171 61.0771 139.378 60.9966 139.581C60.916 139.784 60.7742 140.009 60.571 140.256C60.3697 140.503 60.0869 140.802 59.7227 141.154L58.7536 142.139V142.178H61.2025V143.029H57.3481ZM64.1482 143.106C63.74 143.106 63.3777 143.037 63.061 142.9C62.7462 142.763 62.4992 142.575 62.3198 142.337C62.1423 142.097 62.0544 141.825 62.0562 141.522C62.0544 141.286 62.1057 141.069 62.21 140.871C62.3143 140.673 62.4552 140.509 62.6328 140.377C62.8121 140.243 63.0116 140.158 63.2312 140.122V140.083C62.9421 140.019 62.7078 139.872 62.5284 139.641C62.3509 139.409 62.2631 139.141 62.2649 138.837C62.2631 138.548 62.3436 138.29 62.5065 138.063C62.6694 137.836 62.8926 137.657 63.1763 137.527C63.46 137.395 63.784 137.33 64.1482 137.33C64.5087 137.33 64.8299 137.395 65.1118 137.527C65.3954 137.657 65.6187 137.836 65.7816 138.063C65.9463 138.29 66.0287 138.548 66.0287 138.837C66.0287 139.141 65.9381 139.409 65.7569 139.641C65.5776 139.872 65.346 140.019 65.0624 140.083V140.122C65.282 140.158 65.4796 140.243 65.6553 140.377C65.8329 140.509 65.9738 140.673 66.0781 140.871C66.1843 141.069 66.2373 141.286 66.2373 141.522C66.2373 141.825 66.1477 142.097 65.9683 142.337C65.7889 142.575 65.5419 142.763 65.2271 142.9C64.9141 143.037 64.5545 143.106 64.1482 143.106ZM64.1482 142.321C64.3586 142.321 64.5417 142.285 64.6972 142.213C64.8528 142.14 64.9736 142.038 65.0596 141.906C65.1456 141.774 65.1895 141.622 65.1914 141.45C65.1895 141.271 65.1429 141.113 65.0514 140.975C64.9617 140.836 64.8382 140.727 64.6808 140.649C64.5252 140.57 64.3477 140.531 64.1482 140.531C63.9468 140.531 63.7675 140.57 63.6101 140.649C63.4527 140.727 63.3282 140.836 63.2367 140.975C63.147 141.113 63.1031 141.271 63.105 141.45C63.1031 141.622 63.1452 141.774 63.2312 141.906C63.3173 142.036 63.438 142.138 63.5936 142.211C63.751 142.284 63.9359 142.321 64.1482 142.321ZM64.1482 139.759C64.3202 139.759 64.4721 139.724 64.6039 139.655C64.7375 139.585 64.8427 139.488 64.9196 139.364C64.9965 139.239 65.0358 139.096 65.0376 138.933C65.0358 138.772 64.9974 138.631 64.9223 138.51C64.8473 138.387 64.743 138.293 64.6094 138.227C64.4758 138.16 64.322 138.126 64.1482 138.126C63.9706 138.126 63.8142 138.16 63.6787 138.227C63.5451 138.293 63.4408 138.387 63.3658 138.51C63.2925 138.631 63.2569 138.772 63.2587 138.933C63.2569 139.096 63.2935 139.239 63.3685 139.364C63.4454 139.486 63.5506 139.583 63.6842 139.655C63.8196 139.724 63.9743 139.759 64.1482 139.759ZM69.6806 141.17C69.5141 141.17 69.3713 141.112 69.2524 140.995C69.1334 140.877 69.0748 140.735 69.0767 140.566C69.0748 140.402 69.1334 140.261 69.2524 140.143C69.3713 140.026 69.5141 139.968 69.6806 139.968C69.8417 139.968 69.9817 140.026 70.1007 140.143C70.2215 140.261 70.2828 140.402 70.2846 140.566C70.2828 140.678 70.2535 140.779 70.1968 140.871C70.1418 140.963 70.0686 141.036 69.9771 141.091C69.8874 141.144 69.7886 141.17 69.6806 141.17ZM75.2351 143.106C74.8397 143.106 74.4883 143.038 74.1809 142.903C73.8752 142.767 73.6336 142.579 73.4561 142.337C73.2786 142.095 73.1843 141.816 73.1733 141.5H74.2056C74.2147 141.652 74.2651 141.784 74.3566 141.898C74.4481 142.009 74.5698 142.096 74.7217 142.159C74.8736 142.221 75.0438 142.252 75.2323 142.252C75.4336 142.252 75.6121 142.217 75.7677 142.148C75.9232 142.076 76.0449 141.977 76.1328 141.851C76.2206 141.725 76.2636 141.579 76.2618 141.415C76.2636 141.244 76.2197 141.094 76.13 140.964C76.0404 140.834 75.9104 140.733 75.7402 140.66C75.5718 140.586 75.3687 140.55 75.1307 140.55H74.6338V139.765H75.1307C75.3266 139.765 75.4977 139.731 75.6441 139.663C75.7924 139.595 75.9086 139.5 75.9928 139.378C76.077 139.253 76.1181 139.109 76.1163 138.947C76.1181 138.787 76.0824 138.649 76.0092 138.532C75.9379 138.413 75.8363 138.321 75.7045 138.255C75.5746 138.189 75.4217 138.156 75.246 138.156C75.074 138.156 74.9148 138.187 74.7684 138.249C74.6219 138.311 74.5039 138.4 74.4142 138.516C74.3245 138.629 74.277 138.764 74.2715 138.922H73.2914C73.2987 138.607 73.3893 138.331 73.5632 138.093C73.7389 137.853 73.9731 137.666 74.266 137.533C74.5588 137.397 74.8873 137.33 75.2515 137.33C75.6267 137.33 75.9525 137.4 76.2289 137.541C76.5071 137.68 76.7221 137.868 76.874 138.104C77.0259 138.34 77.1019 138.601 77.1019 138.886C77.1037 139.203 77.0104 139.468 76.8219 139.682C76.6352 139.896 76.3899 140.036 76.0861 140.102V140.146C76.4814 140.201 76.7843 140.348 76.9948 140.585C77.2071 140.822 77.3123 141.115 77.3105 141.467C77.3105 141.782 77.2208 142.063 77.0415 142.312C76.8639 142.559 76.6187 142.753 76.3057 142.894C75.9946 143.035 75.6377 143.106 75.2351 143.106ZM78.2528 143.029V142.293L80.2048 140.38C80.3914 140.191 80.547 140.024 80.6715 139.877C80.7959 139.731 80.8892 139.589 80.9515 139.452C81.0137 139.314 81.0448 139.168 81.0448 139.012C81.0448 138.835 81.0045 138.683 80.924 138.557C80.8435 138.429 80.7328 138.33 80.5918 138.26C80.4509 138.191 80.2908 138.156 80.1114 138.156C79.9266 138.156 79.7646 138.194 79.6255 138.271C79.4864 138.346 79.3784 138.453 79.3015 138.592C79.2265 138.731 79.189 138.897 79.189 139.089H78.2199C78.2199 138.732 78.3013 138.422 78.4642 138.159C78.6271 137.895 78.8513 137.691 79.1368 137.546C79.4242 137.402 79.7536 137.33 80.1251 137.33C80.5022 137.33 80.8334 137.4 81.1189 137.541C81.4044 137.682 81.6259 137.875 81.7833 138.12C81.9425 138.365 82.0221 138.645 82.0221 138.96C82.0221 139.171 81.9819 139.378 81.9013 139.581C81.8208 139.784 81.679 140.009 81.4758 140.256C81.2745 140.503 80.9917 140.802 80.6275 141.154L79.6584 142.139V142.178H82.1072V143.029H78.2528ZM84.9829 143.029V138.812H85.9328V139.529H85.9822C86.0701 139.287 86.2156 139.098 86.4187 138.963C86.6219 138.826 86.8644 138.757 87.1462 138.757C87.4318 138.757 87.6724 138.827 87.8683 138.966C88.0659 139.103 88.205 139.291 88.2855 139.529H88.3295C88.4228 139.294 88.5802 139.108 88.8017 138.969C89.0249 138.828 89.2894 138.757 89.5951 138.757C89.9831 138.757 90.2997 138.88 90.5449 139.125C90.7902 139.37 90.9128 139.728 90.9128 140.198V143.029H89.9163V140.352C89.9163 140.09 89.8467 139.899 89.7076 139.778C89.5685 139.656 89.3983 139.594 89.197 139.594C88.9572 139.594 88.7696 139.669 88.6342 139.82C88.5006 139.968 88.4338 140.161 88.4338 140.399V143.029H87.4592V140.311C87.4592 140.093 87.3933 139.919 87.2615 139.789C87.1316 139.659 86.9614 139.594 86.7509 139.594C86.6082 139.594 86.4782 139.631 86.3611 139.704C86.244 139.776 86.1506 139.877 86.0811 140.009C86.0115 140.139 85.9767 140.291 85.9767 140.465V143.029H84.9829ZM91.921 143.029V138.812H92.9148V143.029H91.921ZM92.4207 138.214C92.2633 138.214 92.1278 138.161 92.0144 138.057C91.9009 137.951 91.8441 137.824 91.8441 137.675C91.8441 137.525 91.9009 137.398 92.0144 137.294C92.1278 137.188 92.2633 137.135 92.4207 137.135C92.5799 137.135 92.7153 137.188 92.827 137.294C92.9404 137.398 92.9972 137.525 92.9972 137.675C92.9972 137.824 92.9404 137.951 92.827 138.057C92.7153 138.161 92.5799 138.214 92.4207 138.214ZM94.9305 140.558V143.029H93.9368V138.812H94.8866V139.529H94.936C95.033 139.292 95.1877 139.105 95.4 138.966C95.6141 138.827 95.8786 138.757 96.1934 138.757C96.4844 138.757 96.7379 138.819 96.9538 138.944C97.1716 139.068 97.34 139.249 97.459 139.485C97.5798 139.721 97.6392 140.007 97.6374 140.344V143.029H96.6436V140.498C96.6436 140.216 96.5704 139.995 96.424 139.836C96.2794 139.677 96.079 139.597 95.8228 139.597C95.6489 139.597 95.4943 139.636 95.3588 139.712C95.2252 139.788 95.12 139.896 95.0431 140.039C94.9681 140.182 94.9305 140.355 94.9305 140.558ZM101.436 143.029L100.244 138.812H101.257L101.998 141.777H102.037L102.794 138.812H103.797L104.554 141.76H104.595L105.326 138.812H106.341L105.147 143.029H104.112L103.322 140.179H103.264L102.473 143.029H101.436ZM108.249 143.114C107.981 143.114 107.741 143.066 107.527 142.971C107.314 142.874 107.146 142.731 107.022 142.543C106.899 142.354 106.838 142.122 106.838 141.846C106.838 141.608 106.882 141.411 106.969 141.255C107.057 141.1 107.177 140.975 107.329 140.882C107.481 140.789 107.652 140.718 107.842 140.671C108.035 140.621 108.233 140.585 108.438 140.564C108.685 140.538 108.886 140.515 109.039 140.495C109.193 140.473 109.305 140.44 109.374 140.396C109.446 140.35 109.481 140.28 109.481 140.185V140.168C109.481 139.961 109.42 139.801 109.297 139.688C109.175 139.574 108.998 139.518 108.768 139.518C108.524 139.518 108.331 139.571 108.188 139.677C108.047 139.783 107.952 139.908 107.903 140.053L106.975 139.921C107.048 139.665 107.169 139.451 107.337 139.279C107.506 139.105 107.712 138.975 107.955 138.889C108.198 138.801 108.467 138.757 108.762 138.757C108.965 138.757 109.167 138.781 109.369 138.828C109.57 138.876 109.754 138.955 109.921 139.065C110.087 139.173 110.221 139.32 110.321 139.507C110.424 139.693 110.475 139.927 110.475 140.207V143.029H109.52V142.45H109.487C109.426 142.567 109.341 142.676 109.232 142.779C109.124 142.88 108.987 142.961 108.822 143.023C108.66 143.084 108.468 143.114 108.249 143.114ZM108.507 142.384C108.706 142.384 108.879 142.344 109.026 142.266C109.172 142.185 109.285 142.079 109.363 141.947C109.444 141.815 109.484 141.672 109.484 141.516V141.019C109.453 141.045 109.4 141.069 109.325 141.091C109.252 141.113 109.169 141.132 109.078 141.148C108.986 141.165 108.896 141.179 108.806 141.192C108.716 141.205 108.639 141.216 108.573 141.225C108.424 141.245 108.292 141.278 108.175 141.324C108.057 141.37 107.965 141.434 107.897 141.516C107.83 141.597 107.796 141.701 107.796 141.829C107.796 142.012 107.863 142.15 107.996 142.244C108.13 142.337 108.3 142.384 108.507 142.384ZM112.468 137.406V143.029H111.474V137.406H112.468ZM114.396 141.706L114.393 140.506H114.553L116.068 138.812H117.229L115.365 140.887H115.159L114.396 141.706ZM113.49 143.029V137.406H114.484V143.029H113.49ZM116.137 143.029L114.764 141.11L115.434 140.41L117.325 143.029H116.137Z" fill="#3F8353"/>
<path d="M21.8396 85.2265L53.4967 77.96H95.0285L126.395 82.3639L113.616 92.493L98.8041 89.19L92.9954 94.805H57.2723L50.3019 89.19L35.4899 93.9243L21.8396 85.2265Z" fill="#D2FA72" stroke="#3F8353" stroke-width="0.487606"/>
<path d="M21.2587 77.0944L52.9158 69.8279H94.4475L125.814 74.2318L113.035 84.3609L98.2231 81.0579L92.4145 86.6729H56.6914L49.721 81.0579L34.909 85.7921L21.2587 77.0944Z" fill="#D2FA72" stroke="#3F8353" stroke-width="0.487606"/>
<path d="M22.4206 102.072L54.0777 94.8051H95.6095L126.976 99.209L114.197 109.338L99.3851 106.035L93.5764 111.65H57.8533L50.8829 106.035L36.0709 110.769L22.4206 102.072Z" fill="#D2FA72" stroke="#3F8353" stroke-width="0.487606"/>
<path d="M21.8396 93.9394L53.4967 86.6729H95.0285L126.395 91.0768L113.616 101.206L98.8041 97.9029L92.9954 103.518H57.2723L50.3019 97.9029L35.4899 102.637L21.8396 93.9394Z" fill="#D2FA72" stroke="#3F8353" stroke-width="0.487606"/>
<path d="M23.0015 113.689L54.6586 106.422H96.1904L127.557 110.826L114.778 120.955L99.966 117.652L94.1574 123.267H58.4342L51.4639 117.652L36.6518 122.387L23.0015 113.689Z" fill="#D2FA72" stroke="#3F8353" stroke-width="0.487606"/>
<path d="M22.4206 105.557L54.0777 98.2904H95.6095L126.976 102.694L114.197 112.823L99.3851 109.52L93.5764 115.135H57.8533L50.8829 109.52L36.0709 114.255L22.4206 105.557Z" fill="#D2FA72" stroke="#3F8353" stroke-width="0.487606"/>
<path d="M51.3231 87.6834C52.5193 86.8823 54.3182 82.2344 54.3182 82.2344L58.9816 83.6598C58.9816 83.6598 60.5569 83.9169 62.6892 85.5741C64.8214 87.2313 71.7391 80.5678 71.4266 77.1215L61.852 68.3619C61.852 68.3619 73.235 68.3619 69.339 62.9582C65.443 57.5545 72.381 63.2761 61.852 57.0008C51.3231 50.7255 46.9205 64.8683 46.9205 64.8683L43.883 61.2233C43.883 61.2233 41.3217 57.5841 37.9624 58.8438C34.603 60.1036 33.455 63.6142 33.6091 64.8683C33.7632 66.1223 36.2782 69.9805 36.2782 69.9805C36.2782 69.9805 33.4479 69.997 32.9641 70.8591C32.4803 71.7212 32.4803 75.3522 32.4803 75.3522C32.4803 75.3522 31.2973 79.5097 33.0902 80.872C34.883 82.2343 33.8475 82.1816 35.9049 82.6902C37.9624 83.1988 42.5607 79.7474 42.5607 79.7474C42.5607 79.7474 42.1053 85.6669 43.883 86.8823C45.6608 88.0978 50.1269 88.4845 51.3231 87.6834Z" fill="#FDFFD1" stroke="#3F8353" stroke-width="0.487606"/>
<path d="M62.2101 92.1449C65.775 92.1449 68.6466 94.9063 68.6466 98.2904C68.6465 101.674 65.7749 104.436 62.2101 104.436C58.6453 104.436 55.7746 101.674 55.7745 98.2904C55.7745 94.9064 58.6453 92.145 62.2101 92.1449Z" fill="white" stroke="#3F8353" stroke-width="0.487606"/>
<circle cx="50.3014" cy="71.6202" r="2.07965" fill="white" stroke="#3F8353" stroke-width="0.487606"/>
<path d="M75.7195 80.1322C76.9157 79.3311 78.7146 74.6831 78.7146 74.6831L83.378 76.1086C83.378 76.1086 84.9534 76.3657 87.0856 78.0228C89.2178 79.68 96.1355 73.0165 95.8231 69.5703L86.2485 60.8106C86.2485 60.8106 97.6314 60.8106 93.7354 55.4069C89.8395 50.0032 96.7774 55.7248 86.2485 49.4496C75.7195 43.1743 71.3169 57.317 71.3169 57.317L68.2794 53.6721C68.2794 53.6721 65.7181 50.0328 62.3588 51.2926C58.9995 52.5523 57.8514 56.0629 58.0055 57.317C58.1596 58.5711 60.6746 62.4293 60.6746 62.4293C60.6746 62.4293 57.8443 62.4457 57.3605 63.3078C56.8767 64.1699 56.8767 67.8009 56.8767 67.8009C56.8767 67.8009 55.6937 71.9585 57.4866 73.3208C59.2794 74.6831 58.2439 74.6303 60.3013 75.1389C62.3588 75.6475 66.9571 72.1961 66.9571 72.1961C66.9571 72.1961 66.5017 78.1156 68.2794 79.3311C70.0572 80.5465 74.5233 80.9333 75.7195 80.1322Z" fill="#FDFFD1" stroke="#3F8353" stroke-width="0.487606"/>
<circle cx="74.6978" cy="64.069" r="2.07965" fill="white" stroke="#3F8353" stroke-width="0.487606"/>
<path d="M100.753 54.1485C99.4899 54.8392 97.2816 59.3072 97.2816 59.3072L92.7648 57.4695C92.7648 57.4695 91.2188 57.0722 89.2437 55.2306C87.2686 53.3889 79.7814 59.4056 79.7838 62.866L88.5347 72.4486C88.5347 72.4486 77.1976 71.4283 80.5935 77.1594C83.9894 82.8906 77.5923 76.5701 87.5164 83.7639C97.4405 90.9577 103.093 77.2665 103.093 77.2665L105.792 81.169C105.792 81.169 108.016 85.0232 111.475 84.0696C114.934 83.116 116.392 79.7224 116.351 78.4596C116.31 77.1968 114.151 73.1287 114.151 73.1287C114.151 73.1287 116.971 73.366 117.53 72.5507C118.089 71.7355 118.415 68.1191 118.415 68.1191C118.415 68.1191 119.966 64.0843 118.302 62.5668C116.639 61.0492 117.665 61.1946 115.662 60.5036C113.658 59.8127 108.769 62.838 108.769 62.838C108.769 62.838 109.753 56.9832 108.091 55.6133C106.43 54.2434 102.016 53.4579 100.753 54.1485Z" fill="#FDFFD1" stroke="#3F8353" stroke-width="0.487606"/>
<circle cx="100.332" cy="70.2383" r="2.07965" transform="rotate(-174.858 100.332 70.2383)" fill="white" stroke="#3F8353" stroke-width="0.487606"/>
<path d="M65.6943 94.4684C67.2726 94.4684 68.6455 96.1216 68.6455 98.2906C68.6454 100.459 67.2725 102.113 65.6943 102.113C64.1163 102.113 62.7443 100.459 62.7441 98.2906C62.7441 96.1218 64.1162 94.4686 65.6943 94.4684Z" fill="white"/>
<path d="M65.6943 94.4684C67.2726 94.4684 68.6455 96.1216 68.6455 98.2906C68.6454 100.459 67.2725 102.113 65.6943 102.113C64.1163 102.113 62.7443 100.459 62.7441 98.2906C62.7441 96.1218 64.1162 94.4686 65.6943 94.4684Z" fill="#3F8353"/>
<path d="M65.6943 94.4684C67.2726 94.4684 68.6455 96.1216 68.6455 98.2906C68.6454 100.459 67.2725 102.113 65.6943 102.113C64.1163 102.113 62.7443 100.459 62.7441 98.2906C62.7441 96.1218 64.1162 94.4686 65.6943 94.4684Z" stroke="#3F8353" stroke-width="0.487606"/>
<path d="M83.7007 92.1449C87.2656 92.1449 90.1373 94.9063 90.1373 98.2904C90.1372 101.674 87.2656 104.436 83.7007 104.436C80.136 104.436 77.2653 101.674 77.2652 98.2904C77.2652 94.9064 80.136 92.145 83.7007 92.1449Z" fill="white" stroke="#3F8353" stroke-width="0.487606"/>
<path d="M87.1869 94.4684C88.7652 94.4684 90.1381 96.1216 90.1381 98.2906C90.1379 100.459 88.7651 102.113 87.1869 102.113C85.6089 102.113 84.2368 100.459 84.2367 98.2906C84.2367 96.1218 85.6088 94.4686 87.1869 94.4684Z" fill="white"/>
<path d="M87.1869 94.4684C88.7652 94.4684 90.1381 96.1216 90.1381 98.2906C90.1379 100.459 88.7651 102.113 87.1869 102.113C85.6089 102.113 84.2368 100.459 84.2367 98.2906C84.2367 96.1218 85.6088 94.4686 87.1869 94.4684Z" fill="#3F8353"/>
<path d="M87.1869 94.4684C88.7652 94.4684 90.1381 96.1216 90.1381 98.2906C90.1379 100.459 88.7651 102.113 87.1869 102.113C85.6089 102.113 84.2368 100.459 84.2367 98.2906C84.2367 96.1218 85.6088 94.4686 87.1869 94.4684Z" stroke="#3F8353" stroke-width="0.487606"/>
<circle cx="179.741" cy="72.25" r="19.649" fill="#3F8353" stroke="#315C3B" stroke-width="0.644231"/>
<circle cx="208.724" cy="90.2819" r="13.2" fill="#3F8353" stroke="#315C3B" stroke-width="0.644231"/>
<rect x="176.842" y="80.9471" width="7.08654" height="32.8558" rx="3.54327" fill="#F9A774" stroke="#A55D31" stroke-width="0.644231"/>
<rect x="206.865" y="96.2743" width="4.59014" height="22.0381" rx="2.29507" fill="#F9A774" stroke="#A55D31" stroke-width="0.644231"/>
<circle cx="228.058" cy="47.1249" r="14.4952" fill="#FACF55" stroke="#D88532" stroke-width="0.644231"/>
</svg>
