<svg width="393" height="103" viewBox="0 0 393 103" fill="none" xmlns="http://www.w3.org/2000/svg">
<g filter="url(#filter0_d_49_336)">
<rect x="20" y="14" width="353" height="55" rx="27.5" fill="#FDFFD1"/>
<rect x="20.5" y="14.5" width="352" height="54" rx="27" stroke="#C9D520"/>
</g>
<path d="M43.5521 37.8114L73.6313 30.9071H113.093L142.896 35.0915L130.754 44.7157L116.68 41.5774L111.161 46.9125H77.2187L70.5958 41.5774L56.522 46.0757L43.5521 37.8114Z" fill="#D2FA72" stroke="#3F8353" stroke-width="0.463301"/>
<path d="M43 30.0846L73.0792 23.1803H112.541L142.344 27.3647L130.202 36.9889L116.128 33.8506L110.609 39.1857H76.6666L70.0437 33.8506L55.9699 38.3488L43 30.0846Z" fill="#D2FA72" stroke="#3F8353" stroke-width="0.463301"/>
<path d="M44.1038 53.8167L74.1829 46.9124H113.645L143.448 51.0968L131.306 60.721L117.232 57.5826L111.713 62.9178H77.7704L71.1474 57.5826L57.0737 62.0809L44.1038 53.8167Z" fill="#D2FA72" stroke="#3F8353" stroke-width="0.463301"/>
<path d="M43.5521 46.0899L73.6313 39.1855H113.093L142.896 43.37L130.754 52.9942L116.68 49.8558L111.161 55.191H77.2187L70.5958 49.8558L56.522 54.3541L43.5521 46.0899Z" fill="#D2FA72" stroke="#3F8353" stroke-width="0.463301"/>
<path d="M44.6559 64.855L74.7351 57.9507H114.197L144 62.1351L131.858 71.7593L117.784 68.621L112.265 73.9561H78.3225L71.6995 68.621L57.6258 73.1192L44.6559 64.855Z" fill="#D2FA72" stroke="#3F8353" stroke-width="0.463301"/>
<path d="M44.1038 57.1283L74.1829 50.224H113.645L143.448 54.4084L131.306 64.0326L117.232 60.8943L111.713 66.2294H77.7704L71.1474 60.8943L57.0737 65.3925L44.1038 57.1283Z" fill="#D2FA72" stroke="#3F8353" stroke-width="0.463301"/>
<path d="M71.5663 40.1458C72.7029 39.3846 74.4121 34.9683 74.4121 34.9683L78.8431 36.3227C78.8431 36.3227 80.3399 36.567 82.3658 38.1416C84.3918 39.7162 90.9647 33.3848 90.6678 30.1103L81.5704 21.7873C81.5704 21.7873 92.386 21.7873 88.6842 16.6529C84.9825 11.5186 91.5746 16.955 81.5704 10.9925C71.5663 5.02999 67.3831 18.4678 67.3831 18.4678L64.4971 15.0046C64.4971 15.0046 62.0634 11.5467 58.8715 12.7437C55.6796 13.9406 54.5888 17.2763 54.7353 18.4678C54.8817 19.6594 57.2713 23.3253 57.2713 23.3253C57.2713 23.3253 54.582 23.3409 54.1224 24.16C53.6627 24.9791 53.6627 28.4291 53.6627 28.4291C53.6627 28.4291 52.5387 32.3795 54.2422 33.6739C55.9456 34.9683 54.9617 34.9181 56.9166 35.4014C58.8715 35.8847 63.2406 32.6053 63.2406 32.6053C63.2406 32.6053 62.8079 38.2297 64.4971 39.3846C66.1862 40.5395 70.4297 40.9069 71.5663 40.1458Z" fill="#FDFFD1" stroke="#3F8353" stroke-width="0.463301"/>
<path d="M81.9095 44.3844C85.2968 44.3844 88.0248 47.0088 88.0248 50.2242C88.0246 53.4395 85.2967 56.0631 81.9095 56.0631C78.5226 56.063 75.7945 53.4394 75.7943 50.2242C75.7943 47.0089 78.5225 44.3846 81.9095 44.3844Z" fill="white" stroke="#3F8353" stroke-width="0.463301"/>
<circle cx="70.5949" cy="24.8833" r="1.976" fill="white" stroke="#3F8353" stroke-width="0.463301"/>
<path d="M94.746 32.971C95.8826 32.2098 97.5918 27.7935 97.5918 27.7935L102.023 29.1479C102.023 29.1479 103.52 29.3922 105.546 30.9668C107.571 32.5414 114.144 26.21 113.847 22.9355L104.75 14.6125C104.75 14.6125 115.566 14.6125 111.864 9.47811C108.162 4.34376 114.754 9.78021 104.75 3.8177C94.746 -2.14481 90.5628 11.293 90.5628 11.293L87.6767 7.82975C87.6767 7.82975 85.2431 4.3719 82.0512 5.56885C78.8593 6.7658 77.7685 10.1014 77.9149 11.293C78.0614 12.4846 80.451 16.1505 80.451 16.1505C80.451 16.1505 77.7617 16.166 77.3021 16.9852C76.8424 17.8043 76.8424 21.2543 76.8424 21.2543C76.8424 21.2543 75.7184 25.2047 77.4218 26.4991C79.1253 27.7935 78.1414 27.7433 80.0963 28.2266C82.0512 28.7099 86.4203 25.4305 86.4203 25.4305C86.4203 25.4305 85.9876 31.0549 87.6767 32.2098C89.3659 33.3647 93.6094 33.7321 94.746 32.971Z" fill="#FDFFD1" stroke="#3F8353" stroke-width="0.463301"/>
<circle cx="93.7758" cy="17.7085" r="1.976" fill="white" stroke="#3F8353" stroke-width="0.463301"/>
<path d="M118.532 8.28235C117.332 8.93857 115.234 13.1839 115.234 13.1839L110.942 11.4378C110.942 11.4378 109.473 11.0603 107.596 9.31047C105.72 7.56063 98.6058 13.2774 98.608 16.5653L106.923 25.6703C106.923 25.6703 96.1507 24.7008 99.3774 30.1463C102.604 35.5918 96.5257 29.5864 105.955 36.4216C115.385 43.2568 120.755 30.248 120.755 30.248L123.319 33.956C123.319 33.956 125.433 37.6181 128.72 36.712C132.006 35.806 133.391 32.5815 133.352 31.3817C133.313 30.1818 131.262 26.3165 131.262 26.3165C131.262 26.3165 133.942 26.542 134.473 25.7673C135.004 24.9927 135.313 21.5566 135.313 21.5566C135.313 21.5566 136.787 17.7229 135.206 16.281C133.626 14.8391 134.601 14.9772 132.698 14.3207C130.794 13.6642 126.148 16.5387 126.148 16.5387C126.148 16.5387 127.084 10.9757 125.505 9.67408C123.926 8.37247 119.732 7.62612 118.532 8.28235Z" fill="#FDFFD1" stroke="#3F8353" stroke-width="0.463301"/>
<circle cx="118.131" cy="23.5703" r="1.976" transform="rotate(-174.858 118.131 23.5703)" fill="white" stroke="#3F8353" stroke-width="0.463301"/>
<path d="M85.2208 46.592C86.7204 46.592 88.0255 48.163 88.0255 50.2239C88.0255 52.2848 86.7204 53.8557 85.2208 53.8557C83.7214 53.8555 82.4171 52.2846 82.4171 50.2239C82.4172 48.1632 83.7214 46.5923 85.2208 46.592Z" fill="white"/>
<path d="M85.2208 46.592C86.7204 46.592 88.0255 48.163 88.0255 50.2239C88.0255 52.2848 86.7204 53.8557 85.2208 53.8557C83.7214 53.8555 82.4171 52.2846 82.4171 50.2239C82.4172 48.1632 83.7214 46.5923 85.2208 46.592Z" fill="#3F8353"/>
<path d="M85.2208 46.592C86.7204 46.592 88.0255 48.163 88.0255 50.2239C88.0255 52.2848 86.7204 53.8557 85.2208 53.8557C83.7214 53.8555 82.4171 52.2846 82.4171 50.2239C82.4172 48.1632 83.7214 46.5923 85.2208 46.592Z" stroke="#3F8353" stroke-width="0.463301"/>
<path d="M102.329 44.3844C105.717 44.3844 108.445 47.0088 108.445 50.2242C108.445 53.4395 105.717 56.0631 102.329 56.0631C98.9425 56.063 96.2144 53.4394 96.2142 50.2242C96.2142 47.0089 98.9424 44.3846 102.329 44.3844Z" fill="white" stroke="#3F8353" stroke-width="0.463301"/>
<path d="M105.642 46.592C107.141 46.592 108.446 48.163 108.446 50.2239C108.446 52.2848 107.141 53.8557 105.642 53.8557C104.142 53.8555 102.838 52.2846 102.838 50.2239C102.838 48.1632 104.142 46.5923 105.642 46.592Z" fill="white"/>
<path d="M105.642 46.592C107.141 46.592 108.446 48.163 108.446 50.2239C108.446 52.2848 107.141 53.8557 105.642 53.8557C104.142 53.8555 102.838 52.2846 102.838 50.2239C102.838 48.1632 104.142 46.5923 105.642 46.592Z" fill="#3F8353"/>
<path d="M105.642 46.592C107.141 46.592 108.446 48.163 108.446 50.2239C108.446 52.2848 107.141 53.8557 105.642 53.8557C104.142 53.8555 102.838 52.2846 102.838 50.2239C102.838 48.1632 104.142 46.5923 105.642 46.592Z" stroke="#3F8353" stroke-width="0.463301"/>
<defs>
<filter id="filter0_d_49_336" x="-4" y="0" width="401" height="103" filterUnits="userSpaceOnUse" color-interpolation-filters="sRGB">
<feFlood flood-opacity="0" result="BackgroundImageFix"/>
<feColorMatrix in="SourceAlpha" type="matrix" values="0 0 0 0 0 0 0 0 0 0 0 0 0 0 0 0 0 0 127 0" result="hardAlpha"/>
<feOffset dy="10"/>
<feGaussianBlur stdDeviation="12"/>
<feColorMatrix type="matrix" values="0 0 0 0 0 0 0 0 0 0 0 0 0 0 0 0 0 0 0.05 0"/>
<feBlend mode="normal" in2="BackgroundImageFix" result="effect1_dropShadow_49_336"/>
<feBlend mode="normal" in="SourceGraphic" in2="effect1_dropShadow_49_336" result="shape"/>
</filter>
</defs>
</svg>
