<svg width="315" height="230" viewBox="0 0 315 230" fill="none" xmlns="http://www.w3.org/2000/svg">
<path d="M2.79932 117.08L95.9374 95.7015H218.128L310.411 108.658L272.814 138.459L229.236 128.741L212.146 145.261H107.046L86.5381 128.741L42.9598 142.67L2.79932 117.08Z" fill="#D2FA72" stroke="#3F8353" stroke-width="0.854478"/>
<path d="M1.09033 93.1548L94.2284 71.7761H216.419L308.702 84.7329L271.105 114.534L227.527 104.816L210.437 121.336H105.337L84.8291 104.816L41.2508 118.744L1.09033 93.1548Z" fill="#D2FA72" stroke="#3F8353" stroke-width="0.854478"/>
<path d="M4.5083 166.64L97.6464 145.261H219.837L312.12 158.218L274.523 188.019L230.945 178.301L213.855 194.821H108.755L88.2471 178.301L44.6687 192.23L4.5083 166.64Z" fill="#D2FA72" stroke="#3F8353" stroke-width="0.854478"/>
<path d="M2.79932 142.715L95.9374 121.336H218.128L310.411 134.293L272.814 164.093L229.236 154.376L212.146 170.896H107.046L86.5381 154.376L42.9598 168.304L2.79932 142.715Z" fill="#D2FA72" stroke="#3F8353" stroke-width="0.854478"/>
<path d="M6.21729 200.819L99.3553 179.44H221.546L313.829 192.397L276.232 222.198L232.654 212.48L215.564 229H110.464L89.9561 212.48L46.3777 226.409L6.21729 200.819Z" fill="#D2FA72" stroke="#3F8353" stroke-width="0.854478"/>
<path d="M4.5083 176.894L97.6464 155.515H219.837L312.12 168.472L274.523 198.272L230.945 188.555L213.855 205.075H108.755L88.2471 188.555L44.6687 202.483L4.5083 176.894Z" fill="#D2FA72" stroke="#3F8353" stroke-width="0.854478"/>
<path d="M89.5413 124.309C93.0606 121.952 98.3533 108.277 98.3533 108.277L112.073 112.471C112.073 112.471 116.708 113.227 122.981 118.103C129.254 122.978 149.607 103.374 148.688 93.2346L120.518 67.4628C120.518 67.4628 154.008 67.4628 142.546 51.5647C131.084 35.6665 151.496 52.5001 120.518 34.0376C89.5413 15.5751 76.5885 57.1844 76.5885 57.1844L67.6519 46.4607C67.6519 46.4607 60.1162 35.7537 50.2328 39.4599C40.3494 43.1662 36.9718 53.4948 37.4252 57.1844C37.8786 60.8739 45.2778 72.2251 45.2778 72.2251C45.2778 72.2251 36.9507 72.2734 35.5274 74.8098C34.1041 77.3462 34.1041 88.0289 34.1041 88.0289C34.1041 88.0289 30.6236 100.261 35.8983 104.269C41.173 108.277 38.1265 108.122 44.1796 109.618C50.2328 111.114 63.7615 100.96 63.7615 100.96C63.7615 100.96 62.4216 118.376 67.6519 121.952C72.8822 125.528 86.0219 126.666 89.5413 124.309Z" fill="#FDFFD1" stroke="#3F8353" stroke-width="0.854478"/>
<circle cx="86.538" cy="77.0497" r="6.40858" fill="white" stroke="#3F8353" stroke-width="0.854478"/>
<path d="M161.317 102.092C164.837 99.7354 170.129 86.0606 170.129 86.0606L183.849 90.2545C183.849 90.2545 188.484 91.0109 194.757 95.8865C201.031 100.762 221.383 81.1574 220.464 71.0182L192.295 45.2465C192.295 45.2465 225.784 45.2465 214.322 29.3483C202.86 13.4501 223.272 30.2837 192.295 11.8212C161.317 -6.64126 148.365 34.968 148.365 34.968L139.428 24.2443C139.428 24.2443 131.892 13.5373 122.009 17.2436C112.126 20.9498 108.748 31.2784 109.201 34.968C109.655 38.6576 117.054 50.0088 117.054 50.0088C117.054 50.0088 108.727 50.057 107.304 52.5934C105.88 55.1299 105.88 65.8125 105.88 65.8125C105.88 65.8125 102.4 78.0445 107.674 82.0526C112.949 86.0606 109.903 85.9053 115.956 87.4017C122.009 88.8981 135.538 78.7437 135.538 78.7437C135.538 78.7437 134.198 96.1595 139.428 99.7354C144.658 103.311 157.798 104.449 161.317 102.092Z" fill="#FDFFD1" stroke="#3F8353" stroke-width="0.854478"/>
<circle cx="158.314" cy="54.8333" r="6.40858" fill="white" stroke="#3F8353" stroke-width="0.854478"/>
<path d="M234.971 25.6456C231.254 27.6775 224.757 40.8229 224.757 40.8229L211.468 35.4161C211.468 35.4161 206.92 34.2473 201.109 28.8291C195.298 23.4109 173.27 41.1123 173.277 51.2932L199.023 79.486C199.023 79.486 165.668 76.4843 175.659 93.3458C185.65 110.207 166.829 91.612 196.027 112.777C225.224 133.941 241.855 93.6607 241.855 93.6607L249.794 105.142C249.794 105.142 256.34 116.482 266.516 113.676C276.691 110.871 280.981 100.886 280.86 97.171C280.739 93.4557 274.387 81.4869 274.387 81.4869C274.387 81.4869 282.685 82.1852 284.33 79.7866C285.975 77.388 286.933 66.7483 286.933 66.7483C286.933 66.7483 291.496 54.8775 286.601 50.4128C281.707 45.9481 284.728 46.3759 278.833 44.3429C272.938 42.31 258.554 51.2109 258.554 51.2109C258.554 51.2109 261.449 33.9853 256.561 29.955C251.672 25.9246 238.687 23.6136 234.971 25.6456Z" fill="#FDFFD1" stroke="#3F8353" stroke-width="0.854478"/>
<circle cx="233.726" cy="72.9836" r="6.40858" transform="rotate(-174.858 233.726 72.9836)" fill="white" stroke="#3F8353" stroke-width="0.854478"/>
<path d="M111.777 150.1C111.729 149.954 111.778 149.65 112.231 149.147C112.66 148.671 113.358 148.126 114.291 147.55C116.15 146.402 118.86 145.181 121.979 144.168C125.099 143.155 128.009 142.55 130.188 142.387C131.281 142.305 132.165 142.337 132.792 142.47C133.455 142.61 133.672 142.828 133.72 142.973C133.767 143.119 133.718 143.422 133.265 143.925C132.836 144.401 132.139 144.946 131.206 145.522C129.347 146.67 126.637 147.892 123.518 148.905C120.399 149.918 117.488 150.521 115.309 150.685C114.216 150.767 113.331 150.735 112.704 150.602C112.042 150.462 111.824 150.245 111.777 150.1Z" fill="white"/>
<path d="M111.777 150.1C111.729 149.954 111.778 149.65 112.231 149.147C112.66 148.671 113.358 148.126 114.291 147.55C116.15 146.402 118.86 145.181 121.979 144.168C125.099 143.155 128.009 142.55 130.188 142.387C131.281 142.305 132.165 142.337 132.792 142.47C133.455 142.61 133.672 142.828 133.72 142.973C133.767 143.119 133.718 143.422 133.265 143.925C132.836 144.401 132.139 144.946 131.206 145.522C129.347 146.67 126.637 147.892 123.518 148.905C120.399 149.918 117.488 150.521 115.309 150.685C114.216 150.767 113.331 150.735 112.704 150.602C112.042 150.462 111.824 150.245 111.777 150.1Z" fill="#3F8353"/>
<path d="M111.777 150.1C111.729 149.954 111.778 149.65 112.231 149.147C112.66 148.671 113.358 148.126 114.291 147.55C116.15 146.402 118.86 145.181 121.979 144.168C125.099 143.155 128.009 142.55 130.188 142.387C131.281 142.305 132.165 142.337 132.792 142.47C133.455 142.61 133.672 142.828 133.72 142.973C133.767 143.119 133.718 143.422 133.265 143.925C132.836 144.401 132.139 144.946 131.206 145.522C129.347 146.67 126.637 147.892 123.518 148.905C120.399 149.918 117.488 150.521 115.309 150.685C114.216 150.767 113.331 150.735 112.704 150.602C112.042 150.462 111.824 150.245 111.777 150.1Z" stroke="#3F8353" stroke-width="0.854478"/>
<path d="M200.363 148.458C200.411 148.313 200.362 148.009 199.909 147.506C199.48 147.03 198.782 146.485 197.849 145.909C195.99 144.761 193.279 143.54 190.16 142.527C187.041 141.514 184.131 140.909 181.952 140.746C180.859 140.664 179.974 140.696 179.348 140.828C178.685 140.969 178.467 141.186 178.42 141.332C178.373 141.478 178.422 141.781 178.875 142.284C179.304 142.76 180.001 143.305 180.934 143.881C182.793 145.029 185.503 146.251 188.622 147.264C191.741 148.277 194.652 148.88 196.831 149.043C197.924 149.125 198.809 149.094 199.436 148.961C200.098 148.821 200.316 148.604 200.363 148.458Z" fill="white"/>
<path d="M200.363 148.458C200.411 148.313 200.362 148.009 199.909 147.506C199.48 147.03 198.782 146.485 197.849 145.909C195.99 144.761 193.279 143.54 190.16 142.527C187.041 141.514 184.131 140.909 181.952 140.746C180.859 140.664 179.974 140.696 179.348 140.828C178.685 140.969 178.467 141.186 178.42 141.332C178.373 141.478 178.422 141.781 178.875 142.284C179.304 142.76 180.001 143.305 180.934 143.881C182.793 145.029 185.503 146.251 188.622 147.264C191.741 148.277 194.652 148.88 196.831 149.043C197.924 149.125 198.809 149.094 199.436 148.961C200.098 148.821 200.316 148.604 200.363 148.458Z" fill="#3F8353"/>
<path d="M200.363 148.458C200.411 148.313 200.362 148.009 199.909 147.506C199.48 147.03 198.782 146.485 197.849 145.909C195.99 144.761 193.279 143.54 190.16 142.527C187.041 141.514 184.131 140.909 181.952 140.746C180.859 140.664 179.974 140.696 179.348 140.828C178.685 140.969 178.467 141.186 178.42 141.332C178.373 141.478 178.422 141.781 178.875 142.284C179.304 142.76 180.001 143.305 180.934 143.881C182.793 145.029 185.503 146.251 188.622 147.264C191.741 148.277 194.652 148.88 196.831 149.043C197.924 149.125 198.809 149.094 199.436 148.961C200.098 148.821 200.316 148.604 200.363 148.458Z" stroke="#3F8353" stroke-width="0.854478"/>
</svg>
